<?xml version="1.0" encoding="UTF-8" standalone="no"?>
<!-- Uploaded to: SVG Repo, www.svgrepo.com, Generator: SVG Repo Mixer Tools -->

<svg
   width="48"
   height="48"
   viewBox="0 0 48 48"
   class="icon"
   version="1.1"
   id="svg6"
   sodipodi:docname="softwareservice.svg"
   inkscape:version="1.2.1 (9c6d41e410, 2022-07-14)"
   xmlns:inkscape="http://www.inkscape.org/namespaces/inkscape"
   xmlns:sodipodi="http://sodipodi.sourceforge.net/DTD/sodipodi-0.dtd"
   xmlns="http://www.w3.org/2000/svg"
   xmlns:svg="http://www.w3.org/2000/svg">
  <defs
     id="defs10" />
  <sodipodi:namedview
     id="namedview8"
     pagecolor="#ffffff"
     bordercolor="#000000"
     borderopacity="0.25"
     inkscape:showpageshadow="2"
     inkscape:pageopacity="0.0"
     inkscape:pagecheckerboard="0"
     inkscape:deskcolor="#d1d1d1"
     showgrid="false"
     inkscape:zoom="20.8125"
     inkscape:cx="23.135135"
     inkscape:cy="24.336336"
     inkscape:window-width="3440"
     inkscape:window-height="1377"
     inkscape:window-x="1912"
     inkscape:window-y="-8"
     inkscape:window-maximized="1"
     inkscape:current-layer="svg6" />
  <path
     d="m 25.613324,34.978197 c 0.114841,-0.431828 0.114841,-0.971616 0.114841,-1.511401 0,-0.539787 0,-0.971616 -0.114841,-1.511403 l 3.215439,-2.159148 c 0.344515,-0.215917 0.459348,-0.647745 0.229674,-0.971616 l -3.100599,-4.966041 c -0.229673,-0.323872 -0.574188,-0.43183 -0.918702,-0.323872 l -3.55995,1.619358 c -0.803855,-0.64774 -1.722555,-1.079573 -2.756087,-1.511401 L 18.37859,19.972121 c 0,-0.323872 -0.344515,-0.647744 -0.689024,-0.647744 h -6.086367 c -0.344511,0 -0.689022,0.323872 -0.689022,0.647744 l -0.459348,3.77851 c -1.0335337,0.32387 -1.8373939,0.863657 -2.7560909,1.511402 L 4.1387886,23.750631 c -0.344512,-0.107958 -0.8038602,0 -0.9186963,0.32387 l -3.10060239,4.96604 c -0.22967445,0.323875 -0.11483684,0.755704 0.2296737,0.971622 L 3.5646029,32.17131 C 3.449766,32.603139 3.449766,33.142926 3.449766,33.682711 c 0,0.539788 0,0.971616 0.1148369,1.511403 l -3.21543929,2.159147 c -0.34451054,0.215917 -0.45934815,0.647745 -0.2296737,0.971615 l 3.10060239,4.966042 c 0.2296737,0.323876 0.5741843,0.431829 0.9186963,0.323876 l 3.5599495,-1.511408 c 0.8038594,0.64775 1.7225572,1.079572 2.7560909,1.511408 l 0.344511,3.67055 c 0,0.323872 0.344511,0.647743 0.689022,0.647743 h 6.086367 c 0.344509,0 0.689023,-0.323871 0.689023,-0.647743 l 0.344509,-3.67055 c 1.033537,-0.323876 1.837394,-0.863658 2.756092,-1.511408 l 3.559942,1.511408 c 0.344515,0.107953 0.80387,0 0.918703,-0.323876 l 3.100598,-4.966042 c 0.229682,-0.32387 0.114841,-0.755698 -0.229666,-0.971615 z m -11.024361,3.886462 c -3.215437,0 -5.7418542,-2.375055 -5.7418534,-5.397863 0,-3.022805 2.5264164,-5.39787 5.7418534,-5.39787 3.215442,0 5.741854,2.375065 5.741854,5.39787 0,3.022808 -2.526412,5.397863 -5.741854,5.397863 z"
     fill="#e65100"
     id="path2"
     style="stroke-width:0.0521923" />
  <path
     d="m 44.331764,14.358337 c 0.114841,-0.539787 0.114841,-0.971617 0.114841,-1.403447 0,-0.431829 0,-0.863658 -0.114841,-1.403445 L 47.202697,9.6082114 C 47.547211,9.3922965 47.547211,9.0684242 47.43237,8.7445518 L 44.561445,4.1023841 C 44.331764,3.7785126 43.98725,3.6705543 43.642751,3.8864685 l -3.33028,1.4034467 C 39.508609,4.7501287 38.704755,4.318299 37.786053,3.8864685 L 37.441546,0.53979008 C 37.556386,0.21591699 37.326705,2.8764648e-6 36.982198,2.8764648e-6 H 31.355182 C 31.010675,2.8764648e-6 30.66616,0.21591699 30.66616,0.53979008 L 30.321646,3.8864685 c -0.918702,0.3238723 -1.722549,0.7557028 -2.526418,1.4034467 l -3.33028,-1.4034467 c -0.344507,-0.1079559 -0.689013,0 -0.918687,0.2159156 l -2.87093,4.6421677 c -0.229676,0.3238724 -0.114838,0.6477454 0.229671,0.8636596 l 2.870933,1.9432336 v 1.403445 c 0,0.43183 0,0.86366 0.114833,1.403447 L 21.01984,16.30157 c -0.344509,0.215915 -0.344509,0.539788 -0.22967,0.863659 l 2.870931,4.642169 c 0.229667,0.323871 0.574173,0.431829 0.918688,0.215914 l 3.33028,-1.403446 c 0.803861,0.539787 1.607715,0.971616 2.526418,1.403446 l 0.344507,3.346679 c 0,0.323876 0.344521,0.539787 0.689021,0.539787 h 5.627016 c 0.344515,0 0.689022,-0.215911 0.689022,-0.539787 l 0.344521,-3.346679 c 0.918688,-0.323872 1.722549,-0.755702 2.526411,-1.403446 l 3.330265,1.403446 c 0.344514,0.107957 0.689028,0 0.918702,-0.215914 l 2.870933,-4.642169 c 0.229681,-0.323871 0.11484,-0.647744 -0.229674,-0.863659 z m -10.220491,3.994424 c -3.215439,0 -5.741857,-2.375063 -5.741857,-5.397871 0,-3.0228063 2.526418,-5.3978693 5.741857,-5.3978693 3.215432,0 5.74185,2.375063 5.74185,5.3978693 0,3.022808 -2.526418,5.397871 -5.74185,5.397871 z"
     fill="#ffa000"
     id="path4"
     style="stroke-width:0.0521923" />
</svg>
