<?xml version="1.0" encoding="UTF-8" standalone="no"?>
<!-- Generator: Adobe Illustrator 26.0.1, SVG Export Plug-In . SVG Version: 6.00 Build 0)  -->

<svg
   version="1.1"
   id="Layer_1"
   x="0px"
   y="0px"
   viewBox="0 0 48 48"
   xml:space="preserve"
   sodipodi:docname="containersoftware.svg"
   width="48"
   height="48"
   xmlns:inkscape="http://www.inkscape.org/namespaces/inkscape"
   xmlns:sodipodi="http://sodipodi.sourceforge.net/DTD/sodipodi-0.dtd"
   xmlns:xlink="http://www.w3.org/1999/xlink"
   xmlns="http://www.w3.org/2000/svg"
   xmlns:svg="http://www.w3.org/2000/svg"><defs
   id="defs39"><linearGradient
     inkscape:collect="always"
     id="linearGradient509"><stop
       style="stop-color:#002255;stop-opacity:1;"
       offset="0"
       id="stop505" /><stop
       style="stop-color:#002255;stop-opacity:0;"
       offset="1"
       id="stop507" /></linearGradient><linearGradient
     inkscape:collect="always"
     xlink:href="#linearGradient509"
     id="linearGradient511"
     x1="319.25967"
     y1="88.848846"
     x2="-126.10571"
     y2="234.59459"
     gradientUnits="userSpaceOnUse" /><linearGradient
     inkscape:collect="always"
     xlink:href="#linearGradient509"
     id="linearGradient513"
     gradientUnits="userSpaceOnUse"
     x1="319.25967"
     y1="88.848846"
     x2="-126.10571"
     y2="234.59459" /><linearGradient
     inkscape:collect="always"
     xlink:href="#linearGradient509"
     id="linearGradient515"
     gradientUnits="userSpaceOnUse"
     x1="319.25967"
     y1="88.848846"
     x2="-126.10571"
     y2="234.59459" /><linearGradient
     inkscape:collect="always"
     xlink:href="#linearGradient509"
     id="linearGradient517"
     gradientUnits="userSpaceOnUse"
     x1="319.25967"
     y1="88.848846"
     x2="-126.10571"
     y2="234.59459" /><linearGradient
     inkscape:collect="always"
     xlink:href="#linearGradient509"
     id="linearGradient519"
     gradientUnits="userSpaceOnUse"
     x1="319.25967"
     y1="88.848846"
     x2="-126.10571"
     y2="234.59459" /><linearGradient
     inkscape:collect="always"
     xlink:href="#linearGradient509"
     id="linearGradient521"
     gradientUnits="userSpaceOnUse"
     x1="319.25967"
     y1="88.848846"
     x2="-126.10571"
     y2="234.59459" /><linearGradient
     inkscape:collect="always"
     xlink:href="#linearGradient509"
     id="linearGradient523"
     gradientUnits="userSpaceOnUse"
     x1="319.25967"
     y1="88.848846"
     x2="-126.10571"
     y2="234.59459" /><linearGradient
     inkscape:collect="always"
     xlink:href="#linearGradient509"
     id="linearGradient525"
     gradientUnits="userSpaceOnUse"
     x1="319.25967"
     y1="88.848846"
     x2="-126.10571"
     y2="234.59459" /><linearGradient
     inkscape:collect="always"
     xlink:href="#linearGradient509"
     id="linearGradient527"
     gradientUnits="userSpaceOnUse"
     x1="319.25967"
     y1="88.848846"
     x2="-126.10571"
     y2="234.59459" /><linearGradient
     inkscape:collect="always"
     xlink:href="#linearGradient509"
     id="linearGradient529"
     gradientUnits="userSpaceOnUse"
     x1="319.25967"
     y1="88.848846"
     x2="-126.10571"
     y2="234.59459" /><linearGradient
     inkscape:collect="always"
     xlink:href="#linearGradient509"
     id="linearGradient531"
     gradientUnits="userSpaceOnUse"
     x1="319.25967"
     y1="88.848846"
     x2="-126.10571"
     y2="234.59459" /></defs><sodipodi:namedview
   id="namedview37"
   pagecolor="#ffffff"
   bordercolor="#000000"
   borderopacity="0.25"
   inkscape:showpageshadow="2"
   inkscape:pageopacity="0.0"
   inkscape:pagecheckerboard="0"
   inkscape:deskcolor="#d1d1d1"
   showgrid="false" />
<style
   type="text/css"
   id="style2">
	.st0{fill:#091313;}
	.st1{fill:#4695EB;}
	.st2{fill:#FF004A;}
</style>









<g
   id="g332"
   transform="matrix(-0.2050822,0,0,0.23499659,66.579996,-8.849512)"
   style="fill:url(#linearGradient511);fill-opacity:1"><path
     class="st0"
     d="m 322.1,88.6 c 0,-0.1 0,-0.2 0,-0.3 v 0 c 0,-0.2 -0.1,-0.4 -0.2,-0.5 v -0.1 c -0.1,-0.2 -0.2,-0.3 -0.3,-0.5 v 0 c -0.1,-0.1 -0.2,-0.3 -0.4,-0.4 v 0 0 c -0.1,-0.1 -0.3,-0.2 -0.5,-0.3 h -0.1 -0.1 l -143.7,-47 c -0.4,-0.1 -0.9,-0.2 -1.3,-0.1 l -76,17.6 -0.3,0.1 h -0.1 c -0.2,0.1 -0.3,0.2 -0.5,0.3 v 0 0 c -0.2,0.1 -0.3,0.2 -0.4,0.4 L 98,58 c -0.1,0.1 -0.2,0.3 -0.3,0.4 v 0.1 c -0.1,0.2 -0.1,0.4 -0.2,0.5 0,0 0,0.1 0,0.1 0,0 0,0.1 0,0.1 0,0.1 0,0.3 0,0.4 v 0 l 8.4,96 c 0.1,0.8 0.5,1.5 1.1,1.9 l 127.1,82.6 v 0 0 c 0.1,0.1 0.3,0.1 0.4,0.2 0.1,0 0.1,0.1 0.2,0.1 0.2,0.1 0.5,0.1 0.7,0.1 0.2,0 0.4,0 0.6,-0.1 l 0.2,-0.1 c 0.1,0 0.3,-0.1 0.4,-0.1 v 0 0 l 74.6,-40.9 c 0.7,-0.4 1.2,-1.2 1.3,-2 L 322,88.8 c 0,0 0,0 0,-0.1 0.1,0 0.1,0 0.1,-0.1 z M 175.9,44.5 312,88.8 295.7,94.8 238.3,116 108,60.2 Z m -73,19 132.9,56.9 -2.6,113.2 -122.4,-79.5 z m 137,95.6 0.9,-38.7 40,-14.8 -2.4,51.3 -22.6,10.1 c -0.8,0.3 -1.4,1 -1.5,1.9 l -0.2,0.8 c -0.3,1.4 0.6,2.7 2,2.9 0.5,0.1 0.9,0 1.4,-0.1 l 20.6,-9.2 -2.3,49.7 -37.6,20.6 z m 67.8,36.5 -26.1,14.4 2.3,-49.1 15.5,-6.9 c 0.9,-0.4 1.5,-1.2 1.6,-2.2 V 151 c 0.1,-1.4 -1,-2.5 -2.4,-2.6 -0.3,0 -0.7,0 -1,0.2 l -13.4,6 2.4,-50.9 30.2,-11.2 z"
     id="path4"
     style="fill:url(#linearGradient513);fill-opacity:1" /><path
     class="st0"
     d="m 148.9,85.2 -0.6,-0.3 c -0.8,-0.4 -1.7,-0.3 -2.4,0.2 -0.7,0.5 -1.1,1.3 -1.1,2.2 l 4.5,86.8 c 0,0.8 0.5,1.6 1.2,2 l 0.5,0.3 c 0.4,0.2 0.9,0.4 1.3,0.4 0.4,0 0.9,-0.1 1.3,-0.3 0.8,-0.5 1.3,-1.3 1.2,-2.3 l -4.5,-86.8 c 0,-1 -0.5,-1.8 -1.4,-2.2 z"
     id="path6"
     style="fill:url(#linearGradient515);fill-opacity:1" /><path
     class="st0"
     d="M 175.7,97.2 175,97 c -1.3,-0.6 -2.7,0 -3.3,1.2 -0.2,0.3 -0.2,0.7 -0.2,1.1 l 2.8,90.6 c 0,0.8 0.5,1.6 1.2,2 l 0.6,0.4 c 1.2,0.7 2.7,0.4 3.5,-0.8 0.3,-0.4 0.4,-0.9 0.4,-1.4 l -2.7,-90.7 c -0.2,-0.9 -0.8,-1.8 -1.6,-2.2 z"
     id="path8"
     style="fill:url(#linearGradient517);fill-opacity:1" /><path
     class="st0"
     d="m 136.6,79.7 -0.5,-0.2 c -0.8,-0.4 -1.7,-0.3 -2.4,0.2 -0.7,0.5 -1.1,1.3 -1.1,2.2 l 5.2,85 c 0,0.8 0.5,1.6 1.2,2 l 0.5,0.3 c 0.4,0.3 0.9,0.4 1.3,0.4 0.4,0 0.9,-0.1 1.3,-0.3 0.8,-0.5 1.3,-1.4 1.2,-2.3 l -5.2,-85 c 0,-1 -0.6,-1.9 -1.5,-2.3 z"
     id="path10"
     style="fill:url(#linearGradient519);fill-opacity:1" /><path
     class="st0"
     d="m 113.9,69.5 -0.5,-0.2 c -1.3,-0.6 -2.7,0 -3.3,1.3 -0.2,0.4 -0.2,0.8 -0.2,1.2 l 6.4,81.6 c 0.1,0.8 0.5,1.5 1.1,1.9 l 0.5,0.3 c 1.2,0.7 2.7,0.4 3.4,-0.8 0.3,-0.5 0.4,-1 0.4,-1.5 l -6.4,-81.7 c 0,-1 -0.5,-1.8 -1.4,-2.1 z"
     id="path12"
     style="fill:url(#linearGradient521);fill-opacity:1" /><path
     class="st0"
     d="m 125,74.4 -0.5,-0.2 c -0.8,-0.4 -1.7,-0.3 -2.4,0.2 -0.7,0.5 -1.1,1.4 -1.1,2.2 l 5.9,83.2 c 0.1,0.8 0.5,1.5 1.2,1.9 l 0.5,0.3 c 1.2,0.7 2.7,0.4 3.4,-0.7 0.3,-0.5 0.4,-1 0.4,-1.5 l -5.8,-83.3 c -0.2,-0.9 -0.8,-1.7 -1.6,-2.1 z"
     id="path14"
     style="fill:url(#linearGradient523);fill-opacity:1" /><path
     class="st0"
     d="m 161.9,91.1 -0.6,-0.3 c -1.3,-0.6 -2.7,0 -3.3,1.2 -0.2,0.4 -0.2,0.8 -0.2,1.1 l 3.7,88.6 c 0,0.8 0.5,1.6 1.2,2 l 0.6,0.4 c 0.4,0.3 0.9,0.4 1.4,0.4 1.4,0 2.5,-1.1 2.5,-2.5 0,0 0,-0.1 0,-0.1 l -3.6,-88.7 c -0.3,-0.9 -0.8,-1.8 -1.7,-2.1 z"
     id="path16"
     style="fill:url(#linearGradient525);fill-opacity:1" /><path
     class="st0"
     d="m 190.2,103.8 -0.7,-0.3 c -0.8,-0.4 -1.7,-0.3 -2.4,0.2 -0.7,0.5 -1.1,1.3 -1.1,2.1 l 1.8,92.6 c 0,0.8 0.4,1.6 1.2,2.1 l 0.6,0.4 c 0.4,0.2 0.9,0.4 1.3,0.4 0.4,0 0.8,-0.1 1.2,-0.3 0.8,-0.4 1.3,-1.3 1.3,-2.2 l -1.7,-92.7 c 0,-1.1 -0.6,-1.9 -1.5,-2.3 z"
     id="path18"
     style="fill:url(#linearGradient527);fill-opacity:1" /><path
     class="st0"
     d="m 205.7,110.8 -0.7,-0.3 c -1.3,-0.6 -2.7,0 -3.3,1.2 -0.2,0.3 -0.2,0.7 -0.2,1.1 l 0.6,94.7 c 0,0.9 0.4,1.6 1.2,2.1 l 0.7,0.4 c 0.8,0.5 1.7,0.5 2.6,0.1 0.8,-0.4 1.3,-1.3 1.3,-2.2 l -0.5,-94.8 c -0.2,-1.1 -0.8,-1.9 -1.7,-2.3 z"
     id="path20"
     style="fill:url(#linearGradient529);fill-opacity:1" /><path
     class="st0"
     d="m 222.2,118.2 -0.8,-0.3 c -1.3,-0.6 -2.7,0 -3.3,1.3 -0.1,0.3 -0.2,0.7 -0.2,1 l -0.7,96.9 c 0,0.9 0.4,1.7 1.2,2.1 l 0.7,0.4 c 0.4,0.3 0.9,0.4 1.3,0.4 0.4,0 0.8,-0.1 1.2,-0.3 0.8,-0.4 1.3,-1.3 1.3,-2.2 l 0.8,-97 c 0,-1 -0.6,-1.9 -1.5,-2.3 z"
     id="path22"
     style="fill:url(#linearGradient531);fill-opacity:1" /></g>






</svg>
